<svg width="189" height="58" viewBox="0 0 189 58" fill="none" xmlns="http://www.w3.org/2000/svg">
<path d="M175.897 0H76.4043C78.7215 0.990662 80.6806 2.63474 82.9346 5.10085C83.9668 6.17583 84.8095 7.4405 85.8206 8.72625L104.527 33.008V12.2463C104.527 9.54829 106.381 7.69344 108.993 7.69344H114.048V48.9007C114.048 48.9007 115.755 52.1889 118.999 54.6761C121.063 56.2991 123.57 57.3741 125.613 57.4584H189V12.7311C189 5.69103 182.975 0 175.897 0ZM131.449 49.6806H126.688C123.739 49.6806 121.969 47.8679 121.969 44.8749V7.6302H127.109C129.658 7.6302 131.428 9.48506 131.428 11.9933V49.6806H131.449ZM159.803 41.6499C163.868 41.6499 166.08 40.1745 168.145 38.3196C169.619 37.1393 171.031 36.3172 173.495 37.4344L177.814 39.3946C174.675 45.718 169.135 49.6806 159.424 49.6806C147.016 49.6806 137.874 40.6171 137.874 28.5816C137.874 16.5462 146.995 7.4405 159.424 7.4405C167.871 7.4405 174.443 11.5085 177.877 17.7265L173.411 19.7922C171.01 20.9093 169.788 19.9397 168.103 18.675C166.038 16.9045 163.384 15.4501 159.424 15.4501C151.714 15.4501 147.395 21.4152 147.395 28.5606C147.395 35.706 151.756 41.671 159.803 41.671" fill="#23AE49"/>
<path d="M48.3234 15.3237C41.1189 15.3237 36.2949 21.352 36.2949 28.5396C36.2949 35.7271 41.0979 41.7133 48.3234 41.7133C55.5488 41.7133 60.3939 35.7904 60.3518 28.5396C60.3518 21.4363 55.591 15.3237 48.3234 15.3237Z" fill="#686767"/>
<path d="M114.807 57.3741C112.406 56.4045 110.299 54.7393 107.94 52.1889L86.2003 24.1342V44.8959C86.2003 47.5939 84.3254 49.4488 81.629 49.4488H76.6154V8.62086C76.6154 8.62086 74.8881 5.33271 71.665 2.84552C69.4742 1.11713 66.7357 0 64.6291 0H0L0.0421311 44.7484C0.0421311 51.8095 6.02475 57.4794 13.1028 57.4794H115.165L114.828 57.3741M20.7706 49.4488H16.0098C13.0606 49.4488 11.2911 47.6361 11.2911 44.643V7.6302H16.4522C19.0011 7.6302 20.7706 9.48506 20.7706 12.0355V49.4488ZM48.3455 49.7017C35.5797 49.7017 26.8165 40.1956 26.8165 28.5606C26.8165 16.9256 35.5797 7.39834 48.3244 7.39834C61.0691 7.39834 69.8534 16.9466 69.8534 28.5395C69.8534 40.1323 61.0691 49.6806 48.3244 49.6806" fill="#686767"/>
</svg>
